PathFileType	4	(X/Y/Z)	./resultDataOpenSim/trcMotMarkerGrf/sub06/qtm-04-06.trc
DataRate	CameraRate	NumFrames	NumMarkers	Units	OrigDataRate	OrigDataStartFrame	OrigNumFrames
250.000000	250.000000	15	24	m	250.000000	417	555
Frame#	Time	L.Toe.Tip			R.Toe.Tip			L.Ankle.Lat			R.Ankle.Lat			L.Ankle.Med			R.Ankle.Med			L.Heel			R.Heel			L.Knee.Lat			R.Knee.Lat			L.Knee.Med			R.Knee.Med			L.Thigh.Upper			R.Thigh.Upper			L.ASIS			R.ASIS			V.Sacral			L.Acromium			R.Acromium			C7			L.Elbow			R.Elbow			L.Wrist.Lat			R.Wrist.Lat
		X1	Y1	Z1	X2	Y2	Z2	X3	Y3	Z3	X4	Y4	Z4	X5	Y5	Z5	X6	Y6	Z6	X7	Y7	Z7	X8	Y8	Z8	X9	Y9	Z9	X10	Y10	Z10	X11	Y11	Z11	X12	Y12	Z12	X13	Y13	Z13	X14	Y14	Z14	X15	Y15	Z15	X16	Y16	Z16	X17	Y17	Z17	X18	Y18	Z18	X19	Y19	Z19	X20	Y20	Z20	X21	Y21	Z21	X22	Y22	Z22	X23	Y23	Z23	X24	Y24	Z24

417	1.664	1.5742109	0.11667679	-0.12198967	0.87609073	0.034713997	0.099888823	1.4497251	0.089938448	-0.13190725	0.76082452	0.097641618	0.13901153	1.4532089	0.10567948	-0.048505814	0.77926624	0.11283753	0.049888436	1.4007837	0.029433254	-0.085007292	0.69730988	0.099144678	0.087619855	1.3432062	0.44876223	-0.12807097	1.0020555	0.4129029	0.1402424	1.338093	0.43726075	-0.0050519775	0.96664489	0.41682775	0.014353944	1.1450136	0.78499312	-0.16263905	1.1031844	0.76254001	0.1855562	1.2085356	0.82880767	-0.11100732	1.2080626	0.81522622	0.13793378	1.0196452	0.89042782	0.020782217	1.0971766	1.3006081	-0.16950038	1.1625712	1.2963764	0.18673664	1.0548404	1.335561	0.021736931	0.99010471	1.0049596	-0.19847266	1.2053311	0.98691915	0.29104509	1.0482968	0.78202904	-0.27737679	1.4373512	0.94052814	0.21595344
418	1.668	1.5778351	0.1133197	-0.12052444	0.87640143	0.034721921	0.099978933	1.4532494	0.08713214	-0.13102327	0.76250753	0.099724147	0.13939648	1.455873	0.10280397	-0.04776382	0.78135661	0.11479494	0.050280205	1.4033163	0.027468025	-0.08451281	0.69937025	0.10255708	0.087958738	1.3492678	0.44760422	-0.12807936	1.0088905	0.41194493	0.14015277	1.344433	0.43660965	-0.0053726851	0.97333959	0.41577355	0.013896889	1.1522741	0.78429228	-0.16337947	1.1096875	0.76133783	0.18456788	1.215758	0.82786068	-0.11163501	1.2149019	0.81419797	0.13727551	1.0262477	0.88931096	0.019860156	1.1035773	1.2995325	-0.17071629	1.168588	1.2954526	0.18557056	1.060997	1.3344152	0.020447911	0.99640499	1.0039976	-0.19916901	1.2107168	0.98592223	0.28997562	1.0537363	0.78084518	-0.27806656	1.4425771	0.93887006	0.21492243
419	1.672	1.5811715	0.10945868	-0.11886574	0.87676863	0.034750888	0.10006044	1.4563274	0.084152066	-0.13015976	0.76439321	0.10189567	0.13978432	1.4580246	0.099677578	-0.047012405	0.78362222	0.11684145	0.050692354	1.4050177	0.025918794	-0.084349791	0.70155785	0.10618997	0.08836212	1.3552457	0.4464649	-0.12806462	1.0160283	0.41079821	0.1398133	1.3507648	0.43587402	-0.0057145416	0.98023209	0.41467425	0.013478691	1.1596319	0.78361666	-0.16407762	1.1160562	0.76004961	0.18352876	1.2230463	0.82696824	-0.11225719	1.2217394	0.81316643	0.13666053	1.0330711	0.88820412	0.018947465	1.11003	1.2984883	-0.17196069	1.1745979	1.2945626	0.18437877	1.0671791	1.3332781	0.019116432	1.0027623	1.0030749	-0.1998745	1.2159857	0.98493569	0.28887666	1.0592797	0.77970048	-0.27876334	1.4477033	0.93716086	0.21392595
420	1.676	1.5843785	0.10468927	-0.11695514	0.87718521	0.03479318	0.10015737	1.459054	0.081131643	-0.12939927	0.76643324	0.10416225	0.14016296	1.4601439	0.096509822	-0.04622746	0.78608614	0.11897304	0.051118445	1.4061361	0.024957617	-0.084258686	0.70384164	0.11007474	0.088859447	1.3611299	0.4453354	-0.12802826	1.0236419	0.4093756	0.13916567	1.3570492	0.43500658	-0.0060605164	0.98734322	0.41351254	0.013106764	1.1670844	0.78293735	-0.16473278	1.1226589	0.75866516	0.1825345	1.2304082	0.82613217	-0.11287594	1.2286157	0.81215571	0.13606435	1.0401459	0.88710932	0.018093333	1.1165333	1.2974719	-0.17323488	1.1805892	1.2937	0.18316232	1.0733832	1.3321536	0.017741184	1.0091758	1.0021861	-0.20060128	1.2211209	0.98394305	0.2877462	1.0649251	0.77859229	-0.27947565	1.4527252	0.93540102	0.2129655
421	1.68	1.5878315	0.098582829	-0.1149234	0.87765153	0.034841966	0.1002962	1.461644	0.078335109	-0.1288423	0.76875689	0.10658384	0.14051435	1.4626368	0.093558386	-0.045453639	0.78878143	0.12118302	0.051552138	1.4070787	0.024739421	-0.084005715	0.70633326	0.11415978	0.089365032	1.3669321	0.44418129	-0.12798727	1.031814	0.40770902	0.13834721	1.3632701	0.43395532	-0.0063813481	0.99469738	0.41227311	0.012773055	1.1746114	0.78223313	-0.165365	1.1296941	0.75724751	0.1816357	1.2378325	0.82536331	-0.11347858	1.2355613	0.81117664	0.1354676	1.0473899	0.88603914	0.017325124	1.1230884	1.2964835	-0.17454032	1.1865703	1.2928642	0.18191542	1.0795939	1.3310564	0.0163263	1.0156384	1.0013269	-0.20136159	1.2261389	0.98294708	0.28660361	1.070673	0.77751865	-0.2802035	1.4576453	0.93359042	0.21204449
422	1.684	1.5919202	0.0911128	-0.11322718	0.87818633	0.034896304	0.10048566	1.4644544	0.076084621	-0.12853909	0.77159727	0.10922295	0.14083577	1.4658706	0.091087866	-0.044818449	0.79174413	0.12346126	0.051989294	1.4082336	0.025373154	-0.083585946	0.70920412	0.11836507	0.089763733	1.3727003	0.44295862	-0.12794745	1.0401618	0.40599882	0.13760236	1.3694296	0.43267731	-0.0066471662	1.0023128	0.41094531	0.012451167	1.1821877	0.78150859	-0.16600687	1.1369751	0.75589777	0.18078209	1.2452788	0.82468315	-0.11404493	1.2425728	0.81022818	0.13486551	1.0546661	0.88503923	0.016603012	1.1296993	1.2955249	-0.1758748	1.1925577	1.2920617	0.18064105	1.0857881	1.3300148	0.01487109	1.0221435	1.0004961	-0.20215601	1.2310923	0.9819696	0.28548873	1.0765264	0.77647656	-0.28093814	1.4624721	0.93173021	0.21116556
423	1.688	1.5967105	0.082904081	-0.11239423	0.87880462	0.034950961	0.10070366	1.467857	0.074549509	-0.12844557	0.77506345	0.11208011	0.1411467	1.4701647	0.089274963	-0.044464404	0.79500384	0.12579924	0.052435164	1.4098274	0.026771456	-0.083182726	0.7125186	0.1226838	0.090060571	1.3785328	0.44164901	-0.12787284	1.0478941	0.40456841	0.13720088	1.3755299	0.4311539	-0.0068556274	1.010182	0.40952085	0.012121596	1.1897901	0.78081434	-0.16669089	1.1442374	0.75465402	0.17989592	1.2526943	0.82411235	-0.11456751	1.2496211	0.80930317	0.13424517	1.061876	0.88418485	0.01585898	1.1363704	1.2945979	-0.17723775	1.1985577	1.2913029	0.17935731	1.0919583	1.3290667	0.013368102	1.0286883	0.999693	-0.20297915	1.2360358	0.98103266	0.28442587	1.0824876	0.77546338	-0.28167159	1.4672108	0.92982558	0.21033147
424	1.692	1.601827	0.074964656	-0.11245188	0.87947833	0.034983691	0.10089994	1.4719707	0.073583679	-0.12847733	0.77896121	0.11507856	0.14148738	1.4754832	0.088094734	-0.044470694	0.79858208	0.12819512	0.052904479	1.4118738	0.028631595	-0.082997269	0.716243	0.12717463	0.090352184	1.384576	0.44029803	-0.12771508	1.0547874	0.40351506	0.13719589	1.381573	0.42940711	-0.0070329736	1.0182549	0.40800036	0.011810367	1.1973988	0.7802562	-0.16744228	1.1514196	0.75347659	0.17895268	1.2600404	0.82365723	-0.11506459	1.2566879	0.80840299	0.13356527	1.0690186	0.88352268	0.015070563	1.143103	1.2937052	-0.17863328	1.2045667	1.2906003	0.17808796	1.0981311	1.3282437	0.011812138	1.0352715	0.99891517	-0.20383288	1.2409543	0.98014369	0.28339375	1.0885557	0.77447839	-0.28240598	1.4718577	0.9278837	0.20954458
425	1.696	1.6066748	0.068039717	-0.11277391	0.88014522	0.034971982	0.10103616	1.4765025	0.072826254	-0.12860648	0.78296838	0.11812572	0.14189244	1.4811638	0.087320456	-0.044840802	0.80249607	0.13065132	0.053409534	1.4142231	0.030611972	-0.083137144	0.72035968	0.13188479	0.090691012	1.3909816	0.43903781	-0.12749282	1.0616216	0.40253897	0.13732799	1.3875639	0.42751295	-0.0072168965	1.0264766	0.40638988	0.011581957	1.2050008	0.77996505	-0.16827055	1.1585787	0.75231028	0.17797782	1.2673021	0.82331347	-0.11557718	1.2637576	0.8075444	0.13279749	1.0761442	0.88301823	0.014263434	1.149893	1.2928516	-0.180065	1.2105873	1.2899678	0.17685126	1.1043521	1.3275582	0.010212483	1.0418939	0.9981581	-0.20472539	1.2457341	0.97930361	0.28232839	1.0947296	0.77352283	-0.28315129	1.4764051	0.92590744	0.20880364
426	1.7	1.610811	0.062184271	-0.11268479	0.88077017	0.034925711	0.1011292	1.4809329	0.071984307	-0.12886313	0.78698285	0.12119114	0.14234374	1.4861691	0.086650075	-0.045478161	0.80676741	0.13316733	0.053947334	1.4166473	0.032473661	-0.083597042	0.72490531	0.1368179	0.091040593	1.3978301	0.43806916	-0.12730949	1.0692097	0.40132908	0.13736682	1.3934594	0.42560354	-0.0074384505	1.0348655	0.40467916	0.011482745	1.2125806	0.78003545	-0.16915237	1.1657418	0.75112393	0.1770073	1.27448	0.82308144	-0.11614651	1.2708017	0.8067467	0.13195297	1.0832841	0.88259431	0.013474578	1.1567337	1.292044	-0.18153397	1.2166294	1.289416	0.17565649	1.1106559	1.3270007	0.008594155	1.0485615	0.99742061	-0.20566162	1.2502633	0.97851621	0.28116636	1.1010139	0.77260256	-0.28391208	1.480849	0.92389287	0.20810501
427	1.704	1.6141354	0.057004919	-0.11209521	0.88136189	0.034882604	0.10121487	1.4848651	0.071007851	-0.1292315	0.79113566	0.12430247	0.14278417	1.4898319	0.085873012	-0.046153509	0.81142793	0.13573564	0.054499012	1.4189025	0.034085762	-0.084268998	0.72994816	0.14193982	0.091315955	1.4050804	0.4375808	-0.12726203	1.0777909	0.39983067	0.13731769	1.3990626	0.42384037	-0.0077027315	1.0435251	0.40284522	0.011504809	1.2201072	0.78047802	-0.17002718	1.1728862	0.7499173	0.17605794	1.281582	0.82297102	-0.11678615	1.2777988	0.80601736	0.13105406	1.0904409	0.88220896	0.012738094	1.1636214	1.2912904	-0.1830383	1.2226961	1.2889501	0.17450351	1.1170516	1.326545	0.0069737097	1.0552816	0.99671162	-0.2066467	1.2546615	0.97777513	0.27993121	1.1074141	0.77172671	-0.28467669	1.4851909	0.92183559	0.20744801
428	1.708	1.6167775	0.052219376	-0.11144504	0.8819361	0.034874317	0.10127883	1.4881584	0.070037908	-0.1295824	0.79556535	0.12748906	0.14318068	1.4924379	0.085018835	-0.046639971	0.81652412	0.13833761	0.055045056	1.4207921	0.0353793	-0.084967268	0.73556333	0.14719312	0.091430186	1.4126135	0.43764822	-0.12735553	1.0872182	0.39813677	0.13729945	1.4039913	0.42236523	-0.0079951803	1.0525625	0.40088917	0.011606134	1.2275377	0.78121933	-0.17082902	1.1799884	0.74871582	0.17511944	1.2886155	0.82299297	-0.11748054	1.2847505	0.80535342	0.13011061	1.0975927	0.88186916	0.012077088	1.1705513	1.2906003	-0.18456755	1.2287849	1.2885731	0.17338502	1.1235265	1.3261684	0.0053469379	1.062058	0.99604789	-0.20769244	1.2594869	0.97703608	0.27880221	1.1139326	0.77090434	-0.28542389	1.4894343	0.91973767	0.20683665
429	1.712	1.618876	0.047900403	-0.11115438	0.8825107	0.034912465	0.10127065	1.4908172	0.069250995	-0.12973352	0.80034486	0.13076169	0.14352833	1.4946555	0.084249237	-0.046821442	0.82212691	0.14092842	0.05558803	1.4222254	0.036332287	-0.085481971	0.74180772	0.15251867	0.091328602	1.4203281	0.4381997	-0.12752628	1.0971678	0.39637202	0.13742	1.4079796	0.42128527	-0.0083023331	1.0620173	0.39884694	0.011753302	1.2348282	0.78214436	-0.17153154	1.1870494	0.74754935	0.17416149	1.295572	0.82314932	-0.11820865	1.2916708	0.80475034	0.12911851	1.1046523	0.88160025	0.011496383	1.1775125	1.2899827	-0.18610258	1.2348925	1.288289	0.17229599	1.1300582	1.3258732	0.0037173229	1.0688924	0.99544838	-0.20880423	1.2655499	0.97620703	0.27804325	1.1205712	0.77014758	-0.28614336	1.4935772	0.91760637	0.20627479
430	1.716	1.6204771	0.044314636	-0.11119988	0.88313619	0.034995962	0.10117637	1.4928767	0.068744613	-0.1295725	0.8055291	0.13411546	0.14381131	1.4963865	0.083525061	-0.046582201	0.82832652	0.14341909	0.056169171	1.423233	0.036982185	-0.08566703	0.74869672	0.15786229	0.091002869	1.4281609	0.43907079	-0.12770519	1.107384	0.39463067	0.13771885	1.411382	0.42070654	-0.0086037559	1.0718725	0.39674745	0.011941507	1.2419418	0.78314598	-0.17216556	1.1940916	0.74642458	0.17315604	1.3024181	0.82343256	-0.11896034	1.2985731	0.80420796	0.12806171	1.1114181	0.88143358	0.010994074	1.184489	1.2894448	-0.187623	1.2409983	1.2881031	0.17123606	1.1366271	1.3256783	0.002111417	1.0757851	0.9949318	-0.20996387	1.2728048	0.97524115	0.27769582	1.1273341	0.76947076	-0.28684467	1.49761	0.91544841	0.20576321
431	1.72	1.6216047	0.041638532	-0.11116003	0.88390243	0.035119941	0.10105199	1.4944024	0.068512956	-0.12912372	0.81117259	0.13752137	0.1440051	1.4971564	0.082676093	-0.045857186	0.83519565	0.14569318	0.056857345	1.4239374	0.037413311	-0.085527281	0.75620944	0.16316502	0.09047404	1.4360279	0.44009099	-0.1278333	1.1177782	0.39295122	0.13817327	1.4150569	0.42071863	-0.0088622111	1.0821019	0.39457568	0.012176526	1.248858	0.78415462	-0.17280278	1.2011983	0.74531679	0.17210218	1.3091167	0.82383247	-0.11973834	1.3054695	0.80373386	0.12691415	1.1176843	0.88139021	0.010573498	1.1914628	1.2889902	-0.18910895	1.2470801	1.2880153	0.17019982	1.1432167	1.3255909	0.00055765571	1.0827383	0.99450931	-0.21113572	1.2790701	0.97429757	0.277262	1.1342266	0.76888157	-0.28754521	1.5015238	0.91326648	0.20530123
